<svg id="visual" viewBox="0 0 675 900" width="675" height="900" xmlns="http://www.w3.org/2000/svg" xmlns:xlink="http://www.w3.org/1999/xlink" version="1.1"><rect x="0" y="0" width="675" height="900" fill="#f5ecff"></rect><defs><linearGradient id="grad1_0" x1="0%" y1="0%" x2="100%" y2="100%"><stop offset="30%" stop-color="#fcaf3c" stop-opacity="1"></stop><stop offset="70%" stop-color="#fcaf3c" stop-opacity="1"></stop></linearGradient></defs><defs><linearGradient id="grad1_1" x1="0%" y1="0%" x2="100%" y2="100%"><stop offset="30%" stop-color="#fcaf3c" stop-opacity="1"></stop><stop offset="70%" stop-color="#ffab68" stop-opacity="1"></stop></linearGradient></defs><defs><linearGradient id="grad1_2" x1="0%" y1="0%" x2="100%" y2="100%"><stop offset="30%" stop-color="#ffac92" stop-opacity="1"></stop><stop offset="70%" stop-color="#ffab68" stop-opacity="1"></stop></linearGradient></defs><defs><linearGradient id="grad1_3" x1="0%" y1="0%" x2="100%" y2="100%"><stop offset="30%" stop-color="#ffac92" stop-opacity="1"></stop><stop offset="70%" stop-color="#ffb4b8" stop-opacity="1"></stop></linearGradient></defs><defs><linearGradient id="grad1_4" x1="0%" y1="0%" x2="100%" y2="100%"><stop offset="30%" stop-color="#ffc1d9" stop-opacity="1"></stop><stop offset="70%" stop-color="#ffb4b8" stop-opacity="1"></stop></linearGradient></defs><defs><linearGradient id="grad1_5" x1="0%" y1="0%" x2="100%" y2="100%"><stop offset="30%" stop-color="#ffc1d9" stop-opacity="1"></stop><stop offset="70%" stop-color="#ffd0f0" stop-opacity="1"></stop></linearGradient></defs><defs><linearGradient id="grad1_6" x1="0%" y1="0%" x2="100%" y2="100%"><stop offset="30%" stop-color="#fedffc" stop-opacity="1"></stop><stop offset="70%" stop-color="#ffd0f0" stop-opacity="1"></stop></linearGradient></defs><defs><linearGradient id="grad1_7" x1="0%" y1="0%" x2="100%" y2="100%"><stop offset="30%" stop-color="#fedffc" stop-opacity="1"></stop><stop offset="70%" stop-color="#f5ecff" stop-opacity="1"></stop></linearGradient></defs><defs><linearGradient id="grad2_0" x1="0%" y1="0%" x2="100%" y2="100%"><stop offset="30%" stop-color="#fcaf3c" stop-opacity="1"></stop><stop offset="70%" stop-color="#fcaf3c" stop-opacity="1"></stop></linearGradient></defs><defs><linearGradient id="grad2_1" x1="0%" y1="0%" x2="100%" y2="100%"><stop offset="30%" stop-color="#ffab68" stop-opacity="1"></stop><stop offset="70%" stop-color="#fcaf3c" stop-opacity="1"></stop></linearGradient></defs><defs><linearGradient id="grad2_2" x1="0%" y1="0%" x2="100%" y2="100%"><stop offset="30%" stop-color="#ffab68" stop-opacity="1"></stop><stop offset="70%" stop-color="#ffac92" stop-opacity="1"></stop></linearGradient></defs><defs><linearGradient id="grad2_3" x1="0%" y1="0%" x2="100%" y2="100%"><stop offset="30%" stop-color="#ffb4b8" stop-opacity="1"></stop><stop offset="70%" stop-color="#ffac92" stop-opacity="1"></stop></linearGradient></defs><defs><linearGradient id="grad2_4" x1="0%" y1="0%" x2="100%" y2="100%"><stop offset="30%" stop-color="#ffb4b8" stop-opacity="1"></stop><stop offset="70%" stop-color="#ffc1d9" stop-opacity="1"></stop></linearGradient></defs><defs><linearGradient id="grad2_5" x1="0%" y1="0%" x2="100%" y2="100%"><stop offset="30%" stop-color="#ffd0f0" stop-opacity="1"></stop><stop offset="70%" stop-color="#ffc1d9" stop-opacity="1"></stop></linearGradient></defs><defs><linearGradient id="grad2_6" x1="0%" y1="0%" x2="100%" y2="100%"><stop offset="30%" stop-color="#ffd0f0" stop-opacity="1"></stop><stop offset="70%" stop-color="#fedffc" stop-opacity="1"></stop></linearGradient></defs><defs><linearGradient id="grad2_7" x1="0%" y1="0%" x2="100%" y2="100%"><stop offset="30%" stop-color="#f5ecff" stop-opacity="1"></stop><stop offset="70%" stop-color="#fedffc" stop-opacity="1"></stop></linearGradient></defs><g transform="translate(675, 0)"><path d="M0 478.1C-52.2 446.1 -104.4 414 -163.8 395.4C-223.2 376.8 -289.7 371.8 -338.1 338.1C-386.5 304.4 -416.7 242.1 -437 181C-457.3 119.9 -467.7 59.9 -478.1 0L0 0Z" fill="#f8e6ff"></path><path d="M0 418.4C-45.7 390.3 -91.4 362.2 -143.3 346C-195.3 329.7 -253.5 325.3 -295.8 295.8C-338.2 266.4 -364.6 211.9 -382.4 158.4C-400.1 104.9 -409.3 52.5 -418.4 0L0 0Z" fill="#ffd8f7"></path><path d="M0 358.6C-39.2 334.5 -78.3 310.5 -122.8 296.6C-167.4 282.6 -217.3 278.8 -253.6 253.6C-289.8 228.3 -312.5 181.6 -327.7 135.8C-343 89.9 -350.8 45 -358.6 0L0 0Z" fill="#ffc8e5"></path><path d="M0 298.8C-32.6 278.8 -65.3 258.7 -102.4 247.1C-139.5 235.5 -181.1 232.4 -211.3 211.3C-241.5 190.3 -260.4 151.3 -273.1 113.1C-285.8 74.9 -292.3 37.5 -298.8 0L0 0Z" fill="#ffbac9"></path><path d="M0 239.1C-26.1 223 -52.2 207 -81.9 197.7C-111.6 188.4 -144.9 185.9 -169 169C-193.2 152.2 -208.3 121.1 -218.5 90.5C-228.7 59.9 -233.9 30 -239.1 0L0 0Z" fill="#ffafa6"></path><path d="M0 179.3C-19.6 167.3 -39.2 155.2 -61.4 148.3C-83.7 141.3 -108.6 139.4 -126.8 126.8C-144.9 114.2 -156.3 90.8 -163.9 67.9C-171.5 45 -175.4 22.5 -179.3 0L0 0Z" fill="#ffab7d"></path><path d="M0 119.5C-13.1 111.5 -26.1 103.5 -40.9 98.9C-55.8 94.2 -72.4 92.9 -84.5 84.5C-96.6 76.1 -104.2 60.5 -109.2 45.3C-114.3 30 -116.9 15 -119.5 0L0 0Z" fill="#ffac52"></path><path d="M0 59.8C-6.5 55.8 -13.1 51.7 -20.5 49.4C-27.9 47.1 -36.2 46.5 -42.3 42.3C-48.3 38.1 -52.1 30.3 -54.6 22.6C-57.2 15 -58.5 7.5 -59.8 0L0 0Z" fill="#fcaf3c"></path></g><g transform="translate(0, 900)"><path d="M0 -478.1C61.7 -458.1 123.4 -438 167.2 -403.7C211 -369.5 237 -320.9 285.7 -285.7C334.4 -250.4 405.9 -228.4 441.7 -183C477.6 -137.6 477.9 -68.8 478.1 0L0 0Z" fill="#f8e6ff"></path><path d="M0 -418.4C54 -400.8 108 -383.3 146.3 -353.3C184.7 -323.3 207.3 -280.8 250 -250C292.6 -219.1 355.1 -199.8 386.5 -160.1C417.9 -120.4 418.1 -60.2 418.4 0L0 0Z" fill="#ffd8f7"></path><path d="M0 -358.6C46.3 -343.6 92.6 -328.5 125.4 -302.8C158.3 -277.1 177.7 -240.7 214.3 -214.3C250.8 -187.8 304.4 -171.3 331.3 -137.2C358.2 -103.2 358.4 -51.6 358.6 0L0 0Z" fill="#ffc8e5"></path><path d="M0 -298.8C38.6 -286.3 77.1 -273.8 104.5 -252.3C131.9 -230.9 148.1 -200.6 178.5 -178.5C209 -156.5 253.7 -142.7 276.1 -114.4C298.5 -86 298.7 -43 298.8 0L0 0Z" fill="#ffbac9"></path><path d="M0 -239.1C30.9 -229 61.7 -219 83.6 -201.9C105.5 -184.7 118.5 -160.5 142.8 -142.8C167.2 -125.2 202.9 -114.2 220.9 -91.5C238.8 -68.8 238.9 -34.4 239.1 0L0 0Z" fill="#ffafa6"></path><path d="M0 -179.3C23.1 -171.8 46.3 -164.3 62.7 -151.4C79.1 -138.5 88.9 -120.4 107.1 -107.1C125.4 -93.9 152.2 -85.6 165.6 -68.6C179.1 -51.6 179.2 -25.8 179.3 0L0 0Z" fill="#ffab7d"></path><path d="M0 -119.5C15.4 -114.5 30.9 -109.5 41.8 -100.9C52.8 -92.4 59.2 -80.2 71.4 -71.4C83.6 -62.6 101.5 -57.1 110.4 -45.7C119.4 -34.4 119.5 -17.2 119.5 0L0 0Z" fill="#ffac52"></path><path d="M0 -59.8C7.7 -57.3 15.4 -54.8 20.9 -50.5C26.4 -46.2 29.6 -40.1 35.7 -35.7C41.8 -31.3 50.7 -28.5 55.2 -22.9C59.7 -17.2 59.7 -8.6 59.8 0L0 0Z" fill="#fcaf3c"></path></g></svg>